<?xml version="1.0" standalone="no"?><svg xmlns="http://www.w3.org/2000/svg" viewBox="0 0 1440 320"><path fill="#0099ff" fill-opacity="1" d="M0,96L6.2,112C12.3,128,25,160,37,160C49.2,160,62,128,74,149.3C86.2,171,98,245,111,282.7C123.1,320,135,320,148,282.7C160,245,172,171,185,138.7C196.9,107,209,117,222,101.3C233.8,85,246,43,258,53.3C270.8,64,283,128,295,144C307.7,160,320,128,332,106.7C344.6,85,357,75,369,58.7C381.5,43,394,21,406,26.7C418.5,32,431,64,443,101.3C455.4,139,468,181,480,176C492.3,171,505,117,517,106.7C529.2,96,542,128,554,133.3C566.2,139,578,117,591,133.3C603.1,149,615,203,628,218.7C640,235,652,213,665,181.3C676.9,149,689,107,702,80C713.8,53,726,43,738,42.7C750.8,43,763,53,775,80C787.7,107,800,149,812,186.7C824.6,224,837,256,849,240C861.5,224,874,160,886,128C898.5,96,911,96,923,133.3C935.4,171,948,245,960,261.3C972.3,277,985,235,997,208C1009.2,181,1022,171,1034,144C1046.2,117,1058,75,1071,58.7C1083.1,43,1095,53,1108,53.3C1120,53,1132,43,1145,85.3C1156.9,128,1169,224,1182,266.7C1193.8,309,1206,299,1218,261.3C1230.8,224,1243,160,1255,138.7C1267.7,117,1280,139,1292,122.7C1304.6,107,1317,53,1329,42.7C1341.5,32,1354,64,1366,101.3C1378.5,139,1391,181,1403,192C1415.4,203,1428,181,1434,170.7L1440,160L1440,0L1433.8,0C1427.7,0,1415,0,1403,0C1390.8,0,1378,0,1366,0C1353.8,0,1342,0,1329,0C1316.9,0,1305,0,1292,0C1280,0,1268,0,1255,0C1243.1,0,1231,0,1218,0C1206.2,0,1194,0,1182,0C1169.2,0,1157,0,1145,0C1132.3,0,1120,0,1108,0C1095.4,0,1083,0,1071,0C1058.5,0,1046,0,1034,0C1021.5,0,1009,0,997,0C984.6,0,972,0,960,0C947.7,0,935,0,923,0C910.8,0,898,0,886,0C873.8,0,862,0,849,0C836.9,0,825,0,812,0C800,0,788,0,775,0C763.1,0,751,0,738,0C726.2,0,714,0,702,0C689.2,0,677,0,665,0C652.3,0,640,0,628,0C615.4,0,603,0,591,0C578.5,0,566,0,554,0C541.5,0,529,0,517,0C504.6,0,492,0,480,0C467.7,0,455,0,443,0C430.8,0,418,0,406,0C393.8,0,382,0,369,0C356.9,0,345,0,332,0C320,0,308,0,295,0C283.1,0,271,0,258,0C246.2,0,234,0,222,0C209.2,0,197,0,185,0C172.3,0,160,0,148,0C135.4,0,123,0,111,0C98.5,0,86,0,74,0C61.5,0,49,0,37,0C24.6,0,12,0,6,0L0,0Z"></path></svg>